# xmcd
#
# Track frame offsets:
#	150
#	19833
#	37971
#	56560
#	77792
#	95997
#	110950
#	129432
#	146149
#	161534
#	177401
#	194502
#	210048
#	227360
#	245143
#	262342
#	282165
#	301393
#	318761
#	333760
#
# Disc length: 4630
#
# Revision: 1
# Processed by: cddbd v1.5.1PL0 Copyright (c) Steve Scherf et al.
# Submitted via: NeoAudio 1.5.6
# Normalized: r0:TDELIM( - )
#
DISCID=22121414
DTITLE=Various Artist - Romanian Music CD
DYEAR=2003
DGENRE=Blues
TTITLE0=3 Sud Est - Te Voi Pierde
TTITLE1=Akcent - O Raza De Iubire
TTITLE2=Alpha - Te Iubesc
TTITLE3=Angela Similea - Afara Ploua Ca Si Toamna
TTITLE4=Angela Similea - Iubite
TTITLE5=Angels - Inima Zdrobita
TTITLE6=Asia - Ramai Cu Mine
TTITLE7=Catalin Crisan - Iubito
TTITLE8=Cristina Râdutâ - Inima Ranita
TTITLE9=Fuego - M - Ai Parasit (3m 31s)
TTITLE10=Gheorghe Gheorghiu - Ma Gindesc La Tine
TTITLE11=Hi Q - Cat Te Iubeam
TTITLE12=K1 - Mi - E Dor De Tine
TTITLE13=Latin Expres - Nu Pot
TTITLE14=Latin Expres - Poate Intelegi
TTITLE15=Marcel Pavel - Frumoasa Mea
TTITLE16=Ovidiu Komornyik - Esti Mireasa Vietii Mele
TTITLE17=Ovidiu Komornyik - Uita - Ma
TTITLE18=Pepe - Toata Fericirea Mea
TTITLE19=Stefan - Sa Ne Iubim Adevarat
EXTD=YEAR: 2003
EXTT0=
EXTT1=
EXTT2=
EXTT3=
EXTT4=
EXTT5=
EXTT6=
EXTT7=
EXTT8=
EXTT9=
EXTT10=
EXTT11=
EXTT12=
EXTT13=
EXTT14=
EXTT15=
EXTT16=
EXTT17=
EXTT18=
EXTT19=
PLAYORDER=
